<svg width="48" height="48" viewBox="0 0 48 48" fill="none" xmlns="http://www.w3.org/2000/svg">
    <path d="M38.822 0C33.7371 0 29.644 4.03532 29.644 9.03896C29.644 14.0468 33.7371 18.0779 38.822 18.0779C43.9068 18.0779 48 14.0468 48 9.03896C48 4.03532 43.9068 0 38.822 0ZM43.0945 3.53351L44.6769 4.57039L37.2818 15.4909L31.3952 9.7039L32.7455 8.37403L36.9864 12.561L43.0945 3.53351ZM28.7684 13.6208L16.2884 22.1299H0V25.8701H16.2884L28.7684 34.3792C29.3064 33.2364 30.0448 32.1974 30.931 31.3143L20.2127 24L30.931 16.6857C30.0448 15.8026 29.3064 14.7636 28.7684 13.6208ZM38.822 29.9221C33.7371 29.9221 29.644 33.9532 29.644 38.961C29.644 43.9688 33.7371 48 38.822 48C43.9068 48 48 43.9688 48 38.961C48 33.9532 43.9068 29.9221 38.822 29.9221ZM34.4334 33.3091L38.822 37.6312L43.2106 33.3091L44.5609 34.639L40.1723 38.961L44.5609 43.2831L43.2106 44.613L38.822 40.2909L34.4334 44.613L33.0831 43.2831L37.4717 38.961L33.0831 34.639L34.4334 33.3091Z" fill="white"/>
</svg>
