<svg width="36" height="42" viewBox="0 0 36 42" fill="none" xmlns="http://www.w3.org/2000/svg">
    <path d="M34.8643 0.529084C34.7406 0.367285 34.5907 0.237022 34.4235 0.146165C34.2564 0.0553082 34.0755 0.00574518 33.8918 0.000470492C33.7081 -0.0048042 33.5255 0.034319 33.3548 0.115476C33.1842 0.196633 33.0292 0.318139 32.8991 0.472652L31.8522 1.71316C31.7253 1.86433 31.654 2.06931 31.654 2.28303C31.654 2.49675 31.7253 2.70172 31.8522 2.85289L32.8119 3.99364C32.8748 4.06889 32.9496 4.12861 33.032 4.16936C33.1143 4.21011 33.2026 4.23109 33.2918 4.23109C33.381 4.23109 33.4693 4.21011 33.5516 4.16936C33.634 4.12861 33.7088 4.06889 33.7717 3.99364L34.7924 2.78437C35.3086 2.17067 35.3569 1.171 34.8643 0.529084ZM29.7355 4.23247L14.4573 22.3916C14.3647 22.5015 14.2974 22.6379 14.2618 22.7877L13.5551 25.2939C13.5382 25.3619 13.537 25.4341 13.5517 25.5028C13.5663 25.5716 13.5963 25.6343 13.6384 25.6845C13.6805 25.7346 13.7333 25.7703 13.791 25.7878C13.8487 25.8052 13.9094 25.8038 13.9665 25.7836L16.0696 24.9422C16.1954 24.8999 16.31 24.8197 16.4022 24.7094L31.6533 6.51597C31.7944 6.34617 31.8735 6.11695 31.8735 5.87808C31.8735 5.63921 31.7944 5.40999 31.6533 5.24019L30.8112 4.23247C30.6684 4.06293 30.475 3.96773 30.2733 3.96773C30.0717 3.96773 29.8783 4.06293 29.7355 4.23247Z" fill="white"/>
    <path d="M28.6351 14.6783L18.319 26.9856C17.9203 27.4615 17.4303 27.8146 16.8912 28.0145L14.6992 28.8882C14.179 29.0631 13.629 29.0697 13.1059 28.9073C12.5829 28.7449 12.1056 28.4194 11.7234 27.9642C11.3412 27.5091 11.0678 26.9409 10.9314 26.318C10.795 25.6952 10.8005 25.0404 10.9474 24.421L11.6812 21.811C11.8485 21.1693 12.1445 20.5859 12.5436 20.1109L22.8799 7.82577C22.9747 7.71308 23.0392 7.56947 23.0654 7.4131C23.0916 7.25672 23.0783 7.09461 23.0271 6.94727C22.9759 6.79992 22.8892 6.67395 22.7779 6.5853C22.6666 6.49665 22.5357 6.44929 22.4018 6.44922H4.7395C3.48251 6.44922 2.277 7.04377 1.38817 8.10209C0.499339 9.1604 0 10.5958 0 12.0925V36.2778C0 37.7745 0.499339 39.2099 1.38817 40.2682C2.277 41.3265 3.48251 41.9211 4.7395 41.9211H25.0517C26.3086 41.9211 27.5142 41.3265 28.403 40.2682C29.2918 39.2099 29.7912 37.7745 29.7912 36.2778V15.2476C29.7911 15.0882 29.7513 14.9323 29.6769 14.7998C29.6024 14.6673 29.4966 14.564 29.3729 14.5031C29.2491 14.4421 29.113 14.4262 28.9816 14.4574C28.8503 14.4886 28.7297 14.5655 28.6351 14.6783Z" fill="white"/>
</svg>
