<svg width="48" height="48" viewBox="0 0 48 48" fill="none" xmlns="http://www.w3.org/2000/svg">
    <path d="M47.5315 0.605801C47.3629 0.420542 47.1585 0.27139 46.9306 0.167359C46.7027 0.0633279 46.4561 0.00657824 46.2057 0.000538713C45.9553 -0.00550081 45.7062 0.0392952 45.4736 0.13222C45.241 0.225145 45.0296 0.36427 44.8523 0.541186L43.425 1.96157C43.252 2.13466 43.1548 2.36936 43.1548 2.61407C43.1548 2.85878 43.252 3.09347 43.425 3.26656L44.7334 4.57271C44.8192 4.65888 44.9211 4.72726 45.0334 4.77392C45.1457 4.82058 45.2661 4.8446 45.3876 4.8446C45.5092 4.8446 45.6296 4.82058 45.7419 4.77392C45.8542 4.72726 45.9561 4.65888 46.0419 4.57271L47.4334 3.1881C48.1373 2.48541 48.203 1.3408 47.5315 0.605801ZM40.5392 4.84617L19.71 25.6384C19.5837 25.7642 19.4919 25.9204 19.4435 26.0919L18.48 28.9615C18.4569 29.0394 18.4553 29.122 18.4753 29.2007C18.4953 29.2794 18.5361 29.3513 18.5936 29.4087C18.651 29.4662 18.7229 29.507 18.8016 29.527C18.8803 29.547 18.9629 29.5453 19.0408 29.5223L21.9081 28.5588C22.0796 28.5103 22.2358 28.4186 22.3616 28.2923L43.1538 7.46078C43.3462 7.26636 43.4541 7.0039 43.4541 6.7304C43.4541 6.4569 43.3462 6.19444 43.1538 6.00002L42.0057 4.84617C41.8111 4.65206 41.5474 4.54305 41.2725 4.54305C40.9976 4.54305 40.7339 4.65206 40.5392 4.84617Z" fill="#FFC107"/>
    <path d="M39.0391 16.8069L24.9749 30.8988C24.4314 31.4437 23.7633 31.8481 23.0284 32.0769L20.0399 33.0773C19.3307 33.2776 18.5809 33.2851 17.8678 33.0991C17.1547 32.9132 16.504 32.5405 15.9829 32.0193C15.4618 31.4982 15.089 30.8476 14.9031 30.1344C14.7171 29.4213 14.7247 28.6715 14.925 27.9623L15.9253 24.9738C16.1535 24.2392 16.557 23.5711 17.1011 23.0273L31.193 8.96079C31.3222 8.83177 31.4102 8.66733 31.4459 8.48828C31.4816 8.30924 31.4634 8.12362 31.3936 7.95491C31.3239 7.7862 31.2056 7.64197 31.0539 7.54046C30.9021 7.43895 30.7236 7.38473 30.5411 7.38464H6.46152C4.74782 7.38464 3.10431 8.06541 1.89254 9.27718C0.680766 10.489 0 12.1325 0 13.8462V41.5384C0 43.2521 0.680766 44.8956 1.89254 46.1074C3.10431 47.3192 4.74782 47.9999 6.46152 47.9999H34.1538C35.8675 47.9999 37.511 47.3192 38.7227 46.1074C39.9345 44.8956 40.6153 43.2521 40.6153 41.5384V17.4588C40.6152 17.2763 40.561 17.0978 40.4595 16.9461C40.358 16.7943 40.2137 16.6761 40.045 16.6063C39.8763 16.5365 39.6907 16.5183 39.5116 16.554C39.3326 16.5897 39.1682 16.6778 39.0391 16.8069Z" fill="#FFC107"/>
</svg>
