<svg width="48" height="48" viewBox="0 0 48 48" fill="none" xmlns="http://www.w3.org/2000/svg">
    <path fill-rule="evenodd" clip-rule="evenodd" d="M31.2 0C31.6774 0 32.1352 0.182788 32.4728 0.508152C32.8104 0.833516 33 1.27481 33 1.73494V4.04819C33 5.12184 32.5575 6.15151 31.7698 6.9107C30.9822 7.66988 29.9139 8.09639 28.8 8.09639H26.4C26.2409 8.09639 26.0883 8.15731 25.9757 8.26577C25.8632 8.37422 25.8 8.52132 25.8 8.6747V10.988H28.8C37.8504 10.988 42.3768 10.988 45.1872 13.6991C48 16.4079 48 20.7707 48 29.494C48 38.2173 48 42.58 45.1872 45.2889C42.3768 48 37.8504 48 28.8 48H19.2C10.1496 48 5.6232 48 2.8128 45.2889C-2.38419e-07 42.58 0 38.2173 0 29.494C0 20.7707 -2.38419e-07 16.4079 2.8128 13.6991C5.6232 10.988 10.1496 10.988 19.2 10.988H22.2V8.6747C22.2 6.4401 24.0816 4.62651 26.4 4.62651H28.8C28.9591 4.62651 29.1117 4.56558 29.2243 4.45712C29.3368 4.34867 29.4 4.20157 29.4 4.04819V1.73494C29.4 1.27481 29.5896 0.833516 29.9272 0.508152C30.2648 0.182788 30.7226 0 31.2 0ZM16.2 24.8675C16.2 24.4073 16.0104 23.966 15.6728 23.6407C15.3352 23.3153 14.8774 23.1325 14.4 23.1325C13.9226 23.1325 13.4648 23.3153 13.1272 23.6407C12.7896 23.966 12.6 24.4073 12.6 24.8675V27.2964C12.6 27.4191 12.5494 27.5368 12.4594 27.6235C12.3694 27.7103 12.2473 27.759 12.12 27.759H9.6C9.12261 27.759 8.66477 27.9418 8.32721 28.2672C7.98964 28.5926 7.8 29.0338 7.8 29.494C7.8 29.9541 7.98964 30.3954 8.32721 30.7208C8.66477 31.0461 9.12261 31.2289 9.6 31.2289H12.12C12.384 31.2289 12.6 31.4371 12.6 31.6916V34.1205C12.6 34.5806 12.7896 35.0219 13.1272 35.3473C13.4648 35.6726 13.9226 35.8554 14.4 35.8554C14.8774 35.8554 15.3352 35.6726 15.6728 35.3473C16.0104 35.0219 16.2 34.5806 16.2 34.1205V31.6916C16.2 31.4371 16.416 31.2289 16.68 31.2289H19.2C19.6774 31.2289 20.1352 31.0461 20.4728 30.7208C20.8104 30.3954 21 29.9541 21 29.494C21 29.0338 20.8104 28.5926 20.4728 28.2672C20.1352 27.9418 19.6774 27.759 19.2 27.759H16.68C16.5527 27.759 16.4306 27.7103 16.3406 27.6235C16.2506 27.5368 16.2 27.4191 16.2 27.2964V24.8675ZM31.2 28.3373C31.8365 28.3373 32.447 28.0936 32.8971 27.6598C33.3471 27.226 33.6 26.6376 33.6 26.0241C33.6 25.4106 33.3471 24.8222 32.8971 24.3884C32.447 23.9546 31.8365 23.7108 31.2 23.7108C30.5635 23.7108 29.953 23.9546 29.5029 24.3884C29.0529 24.8222 28.8 25.4106 28.8 26.0241C28.8 26.6376 29.0529 27.226 29.5029 27.6598C29.953 28.0936 30.5635 28.3373 31.2 28.3373ZM38.4 32.9639C38.4 33.5774 38.1471 34.1658 37.6971 34.5996C37.247 35.0334 36.6365 35.2771 36 35.2771C35.3635 35.2771 34.753 35.0334 34.3029 34.5996C33.8529 34.1658 33.6 33.5774 33.6 32.9639C33.6 32.3503 33.8529 31.762 34.3029 31.3281C34.753 30.8943 35.3635 30.6506 36 30.6506C36.6365 30.6506 37.247 30.8943 37.6971 31.3281C38.1471 31.762 38.4 32.3503 38.4 32.9639Z" fill="white"/>
</svg>
