<svg width="106" height="96" viewBox="0 0 106 96" fill="none" xmlns="http://www.w3.org/2000/svg">
<path d="M12.5146 42.659C12.5146 42.659 5.57742 46.3347 5.89064 39.0648C6.20326 31.7941 8.71758 32.7141 8.71758 32.7141C8.71758 32.7141 0.424472 31.4311 3.81386 24.0255C7.20263 16.6185 11.4342 22.5073 11.4342 22.5073C11.4342 22.5073 6.92295 12.1165 14.7163 11.0305C22.511 9.94456 21.0783 19.1137 21.0783 19.1137L12.5146 42.659Z" fill="#E3E4E2"/>
<path d="M12.5146 42.659C12.5146 42.659 5.57742 46.3347 5.89064 39.0648C6.20326 31.7941 8.71758 32.7141 8.71758 32.7141C8.71758 32.7141 0.424472 31.4311 3.81386 24.0255C7.20263 16.6185 11.4342 22.5073 11.4342 22.5073C11.4342 22.5073 6.92295 12.1165 14.7163 11.0305C22.511 9.94456 21.0783 19.1137 21.0783 19.1137L12.5146 42.659Z" stroke="#1A1919" stroke-width="4.85041" stroke-linecap="round" stroke-linejoin="round"/>
<path d="M84.8093 49.3247C84.3641 74.3516 66.5138 92.6674 45.0136 92.105C23.5134 91.5434 10.2832 76.6317 10.4394 51.6004C10.631 20.6596 25.9856 2.4496 47.4846 3.01269C68.9854 3.57432 85.2527 24.2978 84.8093 49.3247Z" fill="#F9D8B5"/>
<path d="M84.8093 49.3247C84.3641 74.3516 66.5138 92.6674 45.0136 92.105C23.5134 91.5434 10.2832 76.6317 10.4394 51.6004C10.631 20.6596 25.9856 2.4496 47.4846 3.01269C68.9854 3.57432 85.2527 24.2978 84.8093 49.3247Z" stroke="#1A1919" stroke-width="4.85041" stroke-linecap="round" stroke-linejoin="round"/>
<path d="M30.2722 37.4683C30.2476 38.929 29.3031 40.0883 28.1624 40.0582C27.0217 40.0266 26.1174 38.8158 26.141 37.3551C26.1656 35.8929 27.1101 34.7337 28.2514 34.7653C29.3921 34.7962 30.2969 36.0069 30.2722 37.4683Z" fill="#1A1919"/>
<path d="M30.2722 37.4683C30.2476 38.929 29.3031 40.0883 28.1624 40.0582C27.0217 40.0266 26.1174 38.8158 26.141 37.3551C26.1656 35.8929 27.1101 34.7337 28.2514 34.7653C29.3921 34.7962 30.2969 36.0069 30.2722 37.4683Z" stroke="#1A1919" stroke-width="0.969757"/>
<path d="M55.0656 39.2342C55.036 40.6951 53.9018 41.8545 52.5334 41.8229C51.1637 41.792 50.0791 40.5811 50.108 39.1195C50.1376 37.6579 51.2711 36.4984 52.6402 36.5301C54.0085 36.5617 55.0945 37.7718 55.0656 39.2342Z" fill="#1A1919"/>
<path d="M55.0656 39.2342C55.036 40.6951 53.9018 41.8545 52.5334 41.8229C51.1637 41.792 50.0791 40.5811 50.108 39.1195C50.1376 37.6579 51.2711 36.4984 52.6402 36.5301C54.0085 36.5617 55.0945 37.7718 55.0656 39.2342Z" stroke="#1A1919" stroke-width="0.969757"/>
<path d="M31.0992 26.7134C25.2173 21.8408 21.1818 28.5883 21.1818 28.5883C21.1818 28.5883 21.2525 18.7339 26.8017 18.8841C31.0607 18.9996 31.0992 26.7134 31.0992 26.7134Z" fill="#FFFFFE"/>
<path d="M31.0992 26.7134C25.2173 21.8408 21.1818 28.5883 21.1818 28.5883C21.1818 28.5883 21.2525 18.7339 26.8017 18.8841C31.0607 18.9996 31.0992 26.7134 31.0992 26.7134Z" stroke="#1A1919" stroke-width="4.85041" stroke-linecap="round" stroke-linejoin="round"/>
<path d="M58.3303 29.4705C53.8673 21.3911 45.9758 26.4309 45.9758 26.4309C45.9758 26.4309 45.7786 17.8308 52.5122 18.0025C59.2445 18.1735 58.3303 29.4705 58.3303 29.4705Z" fill="#FFFFFE"/>
<path d="M58.3303 29.4705C53.8673 21.3911 45.9758 26.4309 45.9758 26.4309C45.9758 26.4309 45.7786 17.8308 52.5122 18.0025C59.2445 18.1735 58.3303 29.4705 58.3303 29.4705Z" stroke="#1A1919" stroke-width="4.85041" stroke-linecap="round" stroke-linejoin="round"/>
<path d="M50.9326 49.9161C50.8638 53.8136 48.2182 56.9049 45.024 56.8218C41.8298 56.7372 39.2963 53.5099 39.365 49.6124C39.4337 45.7142 42.0787 42.6236 45.2729 42.7075C48.4677 42.7913 51.0007 46.0194 50.9326 49.9161Z" fill="#FFFFFE"/>
<path d="M28.8591 77.7956C29.712 74.6797 33.6212 72.2078 38.8039 72.6862C43.9865 73.1645 48.5129 76.4149 47.7777 79.5417C47.0425 82.6685 41.3195 84.7404 36.1201 84.3332C30.9207 83.9259 28.181 81.1911 28.7981 78.055" fill="#E8B37C"/>
<path d="M28.8591 77.7956C29.712 74.6797 33.6212 72.2078 38.8039 72.6862C43.9865 73.1645 48.5129 76.4149 47.7777 79.5417C47.0425 82.6685 41.3195 84.7404 36.1201 84.3332C30.9207 83.9259 28.181 81.1911 28.7981 78.055" stroke="#E8A763" stroke-width="1.41111" stroke-linecap="round" stroke-linejoin="round"/>
<path d="M30.0094 77.8456C30.752 75.1327 34.1555 72.9807 38.6678 73.3971C43.18 73.8136 47.1208 76.6435 46.4807 79.3658C45.8406 82.0881 40.8579 83.892 36.3311 83.5374C31.8044 83.1829 29.419 80.8018 29.9563 78.0714" fill="#D35F5F"/>
<path d="M30.0094 77.8456C30.752 75.1327 34.1555 72.9807 38.6678 73.3971C43.18 73.8136 47.1208 76.6435 46.4807 79.3658C45.8406 82.0881 40.8579 83.892 36.3311 83.5374C31.8044 83.1829 29.419 80.8018 29.9563 78.0714" stroke="#C78960" stroke-width="1.41111" stroke-linecap="round" stroke-linejoin="round"/>
<path d="M32.9213 78.2443C32.9213 77.6208 32.28 77.1154 31.4889 77.1154C30.6979 77.1154 30.0566 77.6208 30.0566 78.2443C30.0566 78.8678 30.6979 79.3732 31.4889 79.3732C32.28 79.3732 32.9213 78.8678 32.9213 78.2443Z" fill="white"/>
<path d="M32.7463 79.3556C32.7463 78.7321 32.105 78.2267 31.314 78.2267C30.5229 78.2267 29.8816 78.7321 29.8816 79.3556C29.8816 79.9791 30.5229 80.4845 31.314 80.4845C32.105 80.4845 32.7463 79.9791 32.7463 79.3556Z" fill="white"/>
<path d="M46.4234 77.535C46.4234 76.9115 45.7822 76.4061 44.9911 76.4061C44.2001 76.4061 43.5588 76.9115 43.5588 77.535C43.5588 78.1584 44.2001 78.6638 44.9911 78.6638C45.7822 78.6638 46.4234 78.1584 46.4234 77.535Z" fill="white"/>
<path d="M33.3297 80.5028C33.3297 79.8793 32.6884 79.3739 31.8973 79.3739C31.1063 79.3739 30.465 79.8793 30.465 80.5028C30.465 81.1263 31.1063 81.6317 31.8973 81.6317C32.6884 81.6317 33.3297 81.1263 33.3297 80.5028Z" fill="white"/>
<path d="M34.613 81.5063C34.613 80.8828 33.9717 80.3774 33.1806 80.3774C32.3896 80.3774 31.7483 80.8828 31.7483 81.5063C31.7483 82.1298 32.3896 82.6352 33.1806 82.6352C33.9717 82.6352 34.613 82.1298 34.613 81.5063Z" fill="white"/>
<path d="M35.9547 81.9724C35.9547 82.5978 35.3159 83.1013 34.5224 83.1013C33.7289 83.1013 33.09 82.5978 33.09 81.9724C33.4181 80.7298 36.0247 81.0771 35.9547 81.9724V81.9724Z" fill="white"/>
<path d="M45.6421 80.4743C45.6421 79.8508 45.0008 79.3454 44.2097 79.3454C43.4186 79.3454 42.7773 79.8508 42.7773 80.4743C42.7773 81.0978 43.4186 81.6032 44.2097 81.6032C45.0008 81.6032 45.6421 81.0978 45.6421 80.4743Z" fill="white"/>
<path d="M44.2179 81.379C44.2179 80.7556 43.5766 80.2501 42.7856 80.2501C41.9945 80.2501 41.3532 80.7556 41.3532 81.379C41.3532 82.0025 41.9945 82.5079 42.7856 82.5079C43.5766 82.5079 44.2179 82.0025 44.2179 81.379Z" fill="white"/>
<path d="M41.8794 82.0975C41.8794 81.4741 41.2381 80.9686 40.4471 80.9686C39.656 80.9686 39.0147 81.4741 39.0147 82.0975C39.0147 82.721 39.656 83.2265 40.4471 83.2265C41.2381 83.2265 41.8794 82.721 41.8794 82.0975Z" fill="white"/>
<path d="M38.6124 81.0251C38.1085 81.0251 37.6674 81.2286 37.4123 81.537C37.1531 81.3315 36.7939 81.2043 36.3956 81.2043C35.602 81.2043 34.9634 81.7078 34.9634 82.3332C34.9634 82.9586 35.602 83.4621 36.3956 83.4621C36.8994 83.4621 37.3405 83.2588 37.5956 82.9504C37.8548 83.1559 38.214 83.2829 38.6124 83.2829C39.4059 83.2829 40.0448 82.7794 40.0448 82.154C40.0448 81.5286 39.4059 81.0251 38.6124 81.0251Z" fill="white"/>
<path d="M46.4234 79.2146C46.4234 78.5911 45.7822 78.0856 44.9911 78.0856C44.2001 78.0856 43.5588 78.5911 43.5588 79.2146C43.5588 79.838 44.2001 80.3435 44.9911 80.3435C45.7822 80.3435 46.4234 79.838 46.4234 79.2146Z" fill="white"/>
<path d="M50.9326 49.9161C50.8638 53.8136 48.2182 56.9049 45.024 56.8218C41.8298 56.7372 39.2963 53.5099 39.365 49.6124C39.4337 45.7142 42.0787 42.6236 45.2729 42.7075C48.4677 42.7913 51.0007 46.0194 50.9326 49.9161Z" stroke="#1A1919" stroke-width="4.85041" stroke-linecap="round" stroke-linejoin="round"/>
<path d="M29.6219 46.0384C29.6219 46.0384 33.6317 39.8716 39.3636 47.1996M29.053 48.1522C28.9866 52.0489 26.4311 55.141 23.345 55.0571C20.2588 54.9733 17.8104 51.7459 17.8774 47.8485C17.9438 43.9511 20.4999 40.8597 23.586 40.9428C26.6721 41.0274 29.12 44.2548 29.053 48.1522Z" stroke="#1A1919" stroke-width="4.85041" stroke-linecap="round" stroke-linejoin="round"/>
<path d="M29.4449 48.1522C29.3762 52.0489 26.731 55.141 23.5367 55.0571C20.3424 54.9733 17.8081 51.7459 17.8774 47.8485C17.9462 43.9511 20.5919 40.8597 23.7862 40.9428C26.9805 41.0274 29.5142 44.2548 29.4449 48.1522Z" fill="#FFFFFE"/>
<path d="M22.3344 60.379C22.3344 60.379 13.1186 61.1718 15.9303 70.0384C17.9555 76.4255 23.7375 71.7736 23.7375 71.7736C23.7375 71.7736 23.782 79.675 30.0329 78.4927C33.071 77.917 34.2046 74.2339 34.2046 74.2339C34.2046 74.2339 36.0268 80.7057 40.7005 79.6478C45.8863 78.4743 46.695 73.0354 46.695 73.0354C46.695 73.0354 52.3737 80.0652 55.556 75.6724C58.6589 71.3849 57.8135 67.595 55.2053 65.1789C48.8943 59.3329 41.0373 60.4357 41.0373 60.4357" fill="#E3E4E2"/>
<path d="M22.3344 60.379C22.3344 60.379 13.1186 61.1718 15.9303 70.0384C17.9555 76.4255 23.7375 71.7736 23.7375 71.7736C23.7375 71.7736 23.782 79.675 30.0329 78.4927C33.071 77.917 34.2046 74.2339 34.2046 74.2339C34.2046 74.2339 36.0268 80.7057 40.7005 79.6478C45.8863 78.4743 46.695 73.0354 46.695 73.0354C46.695 73.0354 52.3737 80.0652 55.556 75.6724C58.6589 71.3849 57.8135 67.595 55.2053 65.1789C48.8943 59.3329 41.0373 60.4357 41.0373 60.4357" stroke="#1A1919" stroke-width="4.85041" stroke-linecap="round" stroke-linejoin="round"/>
<path d="M77.4915 53.6018C77.4915 53.6018 81.0823 44.6174 87.1629 47.7999C93.2428 50.9824 90.0565 61.9052 86.8167 67.0253C82.9155 73.1921 76.5502 75.8378 74.9008 67.1506" fill="#F9D8B5"/>
<path d="M77.4915 53.6018C77.4915 53.6018 81.0823 44.6174 87.1629 47.7999C93.2428 50.9824 90.0565 61.9052 86.8167 67.0253C82.9155 73.1921 76.5502 75.8378 74.9008 67.1506" stroke="#1A1919" stroke-width="4.85041" stroke-linecap="round" stroke-linejoin="round"/>
<path d="M30.2476 48C30.2476 48 21.4242 50.9594 23.03 59.2943C24.6359 67.6299 45.589 63.2858 38.8634 56.7312" fill="#F9D8B5"/>
<path d="M30.2476 48C30.2476 48 21.4242 50.9594 23.03 59.2943C24.6359 67.6299 45.589 63.2858 38.8634 56.7312" stroke="#1A1919" stroke-width="4.85041" stroke-linecap="round" stroke-linejoin="round"/>
<path d="M77.2144 53.0086C77.2144 53.0086 73.0682 50.5229 73.8753 46.2172C74.6824 41.9107 77.2801 39.3812 77.2801 39.3812C77.2801 39.3812 71.8422 37.7282 72.1389 31.4625C72.4343 25.196 75.3569 24.838 75.3569 24.838C75.3569 24.838 69.8956 24.4822 70.8895 19.9643C71.8821 15.4471 76.4208 16.4286 76.4208 16.4286C76.4208 16.4286 76.8753 11.4637 83.2469 11.8443C89.6178 12.2227 91.869 18.7706 89.2038 24.9751C93.6466 21.1958 99.0949 22.1999 99.9322 26.3321C100.768 30.4635 97.4193 34.2712 97.4193 34.2712C97.4193 34.2712 104.468 37.481 102.722 43.2772C100.46 50.7912 95.5557 46.5548 95.5557 46.5548C95.5557 46.5548 100.491 55.767 94.0489 59.2802C89.1104 61.9737 90.0496 58.7457 90.0496 58.7457C90.0496 58.7457 91.877 48.4083 85.8783 47.6055C80.7954 46.9266 77.2144 53.0086 77.2144 53.0086Z" fill="#E3E4E2"/>
<path d="M77.2144 53.0086C77.2144 53.0086 73.0682 50.5229 73.8753 46.2172C74.6824 41.9107 77.2801 39.3812 77.2801 39.3812C77.2801 39.3812 71.8422 37.7282 72.1389 31.4625C72.4343 25.196 75.3569 24.838 75.3569 24.838C75.3569 24.838 69.8956 24.4822 70.8895 19.9643C71.8821 15.4471 76.4208 16.4286 76.4208 16.4286C76.4208 16.4286 76.8753 11.4637 83.2469 11.8443C89.6178 12.2227 91.869 18.7706 89.2038 24.9751C93.6466 21.1958 99.0949 22.1999 99.9322 26.3321C100.768 30.4635 97.4193 34.2712 97.4193 34.2712C97.4193 34.2712 104.468 37.481 102.722 43.2772C100.46 50.7912 95.5557 46.5548 95.5557 46.5548C95.5557 46.5548 100.491 55.767 94.0489 59.2802C89.1104 61.9737 90.0496 58.7457 90.0496 58.7457C90.0496 58.7457 91.877 48.4083 85.8783 47.6055C80.7954 46.9266 77.2144 53.0086 77.2144 53.0086Z" stroke="#1A1919" stroke-width="4.85041" stroke-linecap="round" stroke-linejoin="round"/>
<path d="M25.314 83.2941C25.314 83.2941 29.2639 98.1228 43.4958 91.1223Z" fill="#F9D8B5"/>
<path d="M85.6446 56.9659C85.6446 56.9659 82.5535 55.7146 80.5513 60.6305M25.314 83.7241C25.314 83.7241 29.1865 97.8958 43.1397 91.2055L25.314 83.7241Z" stroke="#F9D8B5" stroke-width="4.85041" stroke-linecap="round" stroke-linejoin="round"/>
</svg>
