<svg width="674" height="1000" viewBox="0 0 674 1000" fill="none" xmlns="http://www.w3.org/2000/svg">
<path d="M364.521 341.179C364.521 341.179 329.156 359.807 313.684 387.263C298.212 414.716 270.952 469.624 270.952 469.624L229.692 414.716L224.536 417.657L216.43 404.912C216.43 404.912 207.591 406.871 192.855 449.034C178.119 491.194 175.173 503.939 175.173 503.939L185.486 518.647L182.54 536.295C182.54 536.295 227.482 608.853 251.059 626.501C274.637 644.15 283.478 627.481 283.478 627.481C283.478 627.481 276.109 700.038 279.793 743.181C283.478 786.32 285.688 819.659 285.688 819.659C285.688 819.659 473.562 834.363 525.873 830.442C578.184 826.521 619.444 820.638 619.444 820.638L613.549 691.214C613.549 691.214 656.281 624.539 665.122 599.049C673.963 573.555 673.227 586.3 668.807 570.613C664.386 554.927 644.491 437.268 601.023 379.418C557.555 321.568 528.083 316.668 528.083 316.668C528.083 316.668 491.984 358.828 416.096 358.828C402.834 364.711 382.941 361.769 371.89 352.945C360.838 344.12 364.521 341.179 364.521 341.179Z" fill="#C0A991"/>
<path d="M299.074 958.667C299.074 958.667 298.088 965.623 301.414 976.189C304.741 986.755 318.553 997.623 351.933 988.105C385.315 978.589 409.021 972.289 421.427 962.17C433.831 952.06 440.675 961.561 444.302 953.525C447.929 945.48 447.317 929.17 447.317 929.17L299.074 958.667Z" fill="#251D13"/>
<path d="M299.074 958.667C299.074 958.667 298.088 965.623 301.414 976.189C304.741 986.755 318.553 997.623 351.933 988.105C385.315 978.589 409.021 972.289 421.427 962.17C433.831 952.06 440.675 961.561 444.302 953.525C447.929 945.48 447.317 929.17 447.317 929.17L299.074 958.667Z" stroke="#1A1919" stroke-width="4.85041" stroke-linecap="round" stroke-linejoin="round"/>
<path d="M356.895 897.496C356.895 897.496 358.513 905.682 347.932 911.197C337.349 916.713 300.272 916.851 298.426 944.689C297.27 962.102 299.527 967.95 316.363 970.8C332.931 973.598 346.971 970.512 362.777 966.312C401.957 955.89 412 950.26 419.142 941.165C426.285 932.058 441.903 939.485 443.727 934.891C445.55 930.282 446.762 909.371 446.762 909.371L440.962 889.43L356.895 897.496Z" fill="#492E25"/>
<path d="M356.895 897.496C356.895 897.496 358.513 905.682 347.932 911.197C337.349 916.713 300.272 916.851 298.426 944.689C297.27 962.102 299.527 967.95 316.363 970.8C332.931 973.598 346.971 970.512 362.777 966.312C401.957 955.89 412 950.26 419.142 941.165C426.285 932.058 441.903 939.485 443.727 934.891C445.55 930.282 446.762 909.371 446.762 909.371L440.962 889.43L356.895 897.496Z" stroke="#1A1919" stroke-width="4.85041" stroke-linecap="round" stroke-linejoin="round"/>
<path d="M448.826 943.756C448.826 943.756 448.51 963.532 452.785 969.474C457.062 975.412 469.3 975.762 474.521 977.074C479.746 978.389 482.92 998.262 533.611 999.715C584.3 1001.17 595.739 996.841 598.451 991.102C601.169 985.363 600.712 959.746 600.712 959.746L468.169 937.332L448.826 943.756Z" fill="#251D13"/>
<path d="M448.826 943.756C448.826 943.756 448.51 963.532 452.785 969.474C457.062 975.412 469.3 975.762 474.521 977.074C479.746 978.389 482.92 998.262 533.611 999.715C584.3 1001.17 595.739 996.841 598.451 991.102C601.169 985.363 600.712 959.746 600.712 959.746L468.169 937.332L448.826 943.756Z" stroke="#1A1919" stroke-width="4.85041" stroke-linecap="round" stroke-linejoin="round"/>
<path d="M444.949 913.398C444.949 913.398 446.247 941.359 448.773 947.251C451.299 953.14 474.956 950.325 478.34 957.402C481.72 964.485 484.151 976.189 503.341 979.066C522.531 981.946 598.435 992.27 599.664 970.191C600.895 948.119 603.687 937.724 574.979 928.761C546.274 919.786 535.45 913.077 535.45 913.077L444.949 913.398Z" fill="#492E25"/>
<path d="M444.949 913.398C444.949 913.398 446.247 941.359 448.773 947.251C451.299 953.14 474.956 950.325 478.34 957.402C481.72 964.485 484.151 976.189 503.341 979.066C522.531 981.946 598.435 992.27 599.664 970.191C600.895 948.119 603.687 937.724 574.979 928.761C546.274 919.786 535.45 913.077 535.45 913.077L444.949 913.398Z" stroke="#1A1919" stroke-width="4.85041" stroke-linecap="round" stroke-linejoin="round"/>
<path d="M11.4778 81.4738C11.4778 81.4738 -2.11777 65.7046 3.25769 57.7127C8.63315 49.7236 17.6335 75.4497 17.6335 75.4497L11.4778 81.4738Z" fill="#D8232A"/>
<path d="M11.4778 81.4738C11.4778 81.4738 -2.11777 65.7046 3.25769 57.7127C8.63315 49.7236 17.6335 75.4497 17.6335 75.4497L11.4778 81.4738Z" stroke="#1A1919" stroke-width="3.88066" stroke-linecap="round" stroke-linejoin="round"/>
<path d="M56.0685 148.498C56.0685 148.498 20.7919 81.7386 17.6334 75.4497C16.2122 72.62 10.8456 79.4619 11.4777 81.4738C13.2482 87.1067 51.2477 158.284 51.2477 158.284L56.0685 148.498Z" fill="#949594"/>
<path d="M56.0685 148.498C56.0685 148.498 20.7919 81.7386 17.6334 75.4497C16.2122 72.62 10.8456 79.4619 11.4777 81.4738C13.2482 87.1067 51.2477 158.284 51.2477 158.284L56.0685 148.498Z" stroke="#1A1919" stroke-width="3.88066" stroke-linecap="round" stroke-linejoin="round"/>
<path d="M104.357 238.083C104.357 238.083 58.4622 151.219 54.3466 143.03C52.4988 139.347 45.512 148.254 46.3365 150.869C48.644 158.199 98.0864 250.814 98.0864 250.814L104.357 238.083Z" fill="#949594"/>
<path d="M104.357 238.083C104.357 238.083 58.4622 151.219 54.3466 143.03C52.4988 139.347 45.512 148.254 46.3365 150.869C48.644 158.199 98.0864 250.814 98.0864 250.814L104.357 238.083Z" stroke="#1A1919" stroke-width="3.88066" stroke-linecap="round" stroke-linejoin="round"/>
<path d="M183.621 474.789C183.621 474.789 159.038 481.072 154.321 448.354C149.602 415.639 158.304 343.37 165.817 332.325C177.46 315.203 179.149 318.744 183.165 340.967C186.68 360.454 212.788 361.878 214.766 387.254C216.214 405.838 216.211 405.912 205.403 425.384C194.595 444.854 183.621 474.789 183.621 474.789Z" fill="#F9D8B5"/>
<path d="M183.621 474.789C183.621 474.789 159.038 481.072 154.321 448.354C149.602 415.639 158.304 343.37 165.817 332.325C177.46 315.203 179.149 318.744 183.165 340.967C186.68 360.454 212.788 361.878 214.766 387.254C216.214 405.838 216.211 405.912 205.403 425.384C194.595 444.854 183.621 474.789 183.621 474.789Z" stroke="#1A1919" stroke-width="4.85041" stroke-linecap="round" stroke-linejoin="round"/>
<path d="M501.641 327.99C501.641 327.99 424.327 404.894 389.188 469.048C354.048 533.204 342.104 568.934 342.104 568.934C342.104 568.934 325.321 525.403 342.447 439.783C359.568 354.172 376.306 346.503 376.306 346.503" fill="#FFFFFE"/>
<path d="M354.521 395.914L406.799 353.195M501.641 327.99C501.641 327.99 424.327 404.894 389.188 469.048C354.048 533.204 342.104 568.934 342.104 568.934C342.104 568.934 325.321 525.403 342.446 439.783C359.567 354.172 376.306 346.503 376.306 346.503L501.641 327.99ZM366.824 338.088C366.824 338.088 327.878 367.223 313.962 416.86C331.366 422.014 332.166 426.691 332.166 426.691C332.166 426.691 311.971 431.929 309.144 444.648C306.31 457.367 301.492 485.152 318.292 527.53C335.093 569.893 342.104 568.934 342.104 568.934C342.104 568.934 418.565 490.841 448.654 468.43C477.133 447.216 450.926 435.912 443.157 429.873C435.383 423.832 483.355 431.023 483.355 431.023L514.954 315.568L366.824 338.088ZM406.799 353.195L431.241 409.748L406.799 353.195Z" stroke="#1A1919" stroke-width="4.85041" stroke-linecap="round" stroke-linejoin="round"/>
<path d="M373.974 382.51L377.055 408.198L391.84 413.272L422.822 389.725L406.744 356.687L373.974 382.51Z" fill="#444F7E"/>
<path d="M373.974 382.51L377.055 408.198L391.84 413.272L422.822 389.725L406.744 356.687L373.974 382.51Z" stroke="#1A1919" stroke-width="4.85041" stroke-linecap="round" stroke-linejoin="round"/>
<path d="M376.558 493.121L391.84 413.272L377.055 408.198C377.055 408.198 338.631 459.455 336.468 484.993C334.306 510.534 342.104 568.934 342.104 568.934L376.558 493.121Z" fill="#444F7E"/>
<path d="M376.558 493.121L391.84 413.272L377.055 408.198C377.055 408.198 338.631 459.455 336.468 484.993C334.306 510.534 342.104 568.934 342.104 568.934L376.558 493.121Z" stroke="#1A1919" stroke-width="4.85041" stroke-linecap="round" stroke-linejoin="round"/>
<path d="M486.127 638.223C486.127 638.223 515.385 666.985 545.657 687.631C575.927 708.286 597.734 711.239 597.734 711.239L588.489 742.386C588.489 742.386 573.573 745.451 534.716 715.248C495.861 685.046 476.897 668.214 476.897 668.214L486.127 638.223Z" fill="#FFFFFE"/>
<path d="M486.127 638.223C486.127 638.223 515.385 666.985 545.657 687.631C575.927 708.286 597.734 711.239 597.734 711.239L588.489 742.387C588.489 742.387 573.573 745.452 534.716 715.249C495.861 685.046 476.897 668.215 476.897 668.215L486.127 638.223ZM486.127 638.223L610.196 697.629M610.196 697.629C610.196 697.629 672.973 600.525 670.672 580.682C668.369 560.833 652.587 467.021 605.097 384.642C575.021 332.464 520.274 311.067 520.274 311.067L520.559 455.358C499.088 539.684 554.182 538.937 554.182 538.937C554.182 538.937 562.906 540.352 543.657 540.967C524.41 541.576 538.505 562.345 538.505 562.345C538.505 562.345 529.814 585.95 501.968 631.699C549.152 687.74 610.196 697.629 610.196 697.629ZM610.196 697.629L620.418 822.433C620.418 822.433 385.351 841.29 285.164 818.635C271.398 615.78 279.166 540.952 279.166 540.952M279.166 540.952L281.716 626.546C252.595 643.165 215.862 589.748 181.768 535.245C188.678 486.579 229.246 410.939 229.246 410.939L269.363 471.433M279.166 540.952L276.616 455.358L366.824 338.088C366.824 338.088 329.372 356.216 294.224 420.952C276.818 453.008 269.363 471.433 269.363 471.433M509.665 642.388L488.263 635.405M587.103 692.899L577.302 704.253M269.363 471.433C269.363 471.433 279.128 462.403 279.663 483.367M464.21 695.773C464.21 695.773 450.196 751.223 485.519 783.649L464.21 695.773ZM350.7 632.014C350.565 640.368 345.368 646.986 339.093 646.806C332.821 646.63 327.843 639.712 327.978 631.364C328.115 623.013 333.309 616.389 339.584 616.571C345.857 616.751 350.837 623.666 350.7 632.014ZM349.325 716.919C349.192 725.267 343.994 731.891 337.719 731.709C331.448 731.53 326.47 724.617 326.603 716.266C326.74 707.913 331.936 701.294 338.211 701.471C344.482 701.65 349.462 708.566 349.325 716.919Z" stroke="#1A1919" stroke-width="4.85041" stroke-linecap="round" stroke-linejoin="round"/>
<path d="M224.673 416.481L216.214 405.838C216.214 405.838 192.926 440.156 180.924 479.372C173.484 503.674 176.101 507.157 176.101 507.157L183.797 517.849C183.797 517.849 195.72 483.287 206.625 457.996C217.527 432.715 224.673 416.481 224.673 416.481Z" fill="#FFFFFE"/>
<path d="M224.673 416.481L216.214 405.838C216.214 405.838 192.926 440.156 180.924 479.372C173.484 503.674 176.101 507.157 176.101 507.157L183.797 517.849C183.797 517.849 195.72 483.287 206.625 457.996C217.527 432.715 224.673 416.481 224.673 416.481Z" stroke="#1A1919" stroke-width="4.85041" stroke-linecap="round" stroke-linejoin="round"/>
<path d="M178.225 375.735C178.225 375.735 112.055 250.497 106.127 238.692C103.464 233.386 93.3871 246.22 94.574 249.996C97.9028 260.565 169.185 394.093 169.185 394.093L178.225 375.735Z" fill="#949594"/>
<path d="M178.225 375.735C178.225 375.735 112.055 250.497 106.127 238.692C103.464 233.386 93.3871 246.22 94.574 249.996C97.9028 260.565 169.185 394.093 169.185 394.093L178.225 375.735Z" stroke="#1A1919" stroke-width="3.88066" stroke-linecap="round" stroke-linejoin="round"/>
<path d="M150.203 432.526C150.203 432.526 148.116 453.411 162.176 449.16C176.234 444.913 187.007 427.764 177.558 417.019C168.115 406.28 159.243 414.172 159.243 414.172L150.203 432.526Z" fill="#F9D8B5"/>
<path d="M150.203 432.526C150.203 432.526 148.116 453.411 162.176 449.16C176.234 444.913 187.007 427.764 177.558 417.019C168.115 406.28 159.243 414.172 159.243 414.172L150.203 432.526Z" stroke="#1A1919" stroke-width="4.85041" stroke-linecap="round" stroke-linejoin="round"/>
<path d="M135.818 403.026C135.818 403.026 137.914 435.668 165.249 421.325C192.586 406.983 177.956 392.599 164.789 395.711C151.622 398.826 135.818 403.026 135.818 403.026Z" fill="#F9D8B5"/>
<path d="M135.818 403.026C135.818 403.026 137.914 435.668 165.249 421.325C192.586 406.983 177.956 392.599 164.789 395.711C151.622 398.826 135.818 403.026 135.818 403.026Z" stroke="#1A1919" stroke-width="4.85041" stroke-linecap="round" stroke-linejoin="round"/>
<path d="M118.441 342.023C118.441 342.023 137.726 339.085 143.692 348.562C149.657 358.046 152.168 365.096 133.763 368.061C115.353 371.023 109.273 368.517 108.585 356.869C107.9 345.212 118.441 342.023 118.441 342.023Z" fill="#F9D8B5"/>
<path d="M118.441 342.023C118.441 342.023 137.726 339.085 143.692 348.562C149.657 358.046 152.168 365.096 133.763 368.061C115.353 371.023 109.273 368.517 108.585 356.869C107.9 345.212 118.441 342.023 118.441 342.023Z" stroke="#1A1919" stroke-width="4.85041" stroke-linecap="round" stroke-linejoin="round"/>
<path d="M143.338 370.661C143.338 370.661 171.378 366.808 167.58 385.319C166.122 392.434 155.209 403.803 137.622 399.588C121.076 395.623 119.61 378.124 129.336 371.423C139.061 364.72 143.338 370.661 143.338 370.661Z" fill="#F9D8B5"/>
<path d="M212.624 411.627C212.624 411.627 219.991 388.566 209.729 374.309C199.468 360.055 195.054 362.255 185.692 346.856C176.32 331.464 185.287 317.759 174.704 323.272C164.126 328.787 163.043 341.553 167.983 360.311L177.449 369.894C177.449 369.894 167.496 390.555 186.399 410.877M143.338 370.662C143.338 370.662 171.378 366.808 167.58 385.319C166.122 392.434 155.209 403.803 137.622 399.588C121.076 395.623 119.61 378.124 129.336 371.423C139.061 364.72 143.338 370.662 143.338 370.662Z" stroke="#1A1919" stroke-width="4.85041" stroke-linecap="round" stroke-linejoin="round"/>
<path d="M430.565 829.786C430.565 829.786 436.132 891.034 438.528 905.067C440.922 919.098 440.922 919.098 440.922 919.098C440.922 919.098 514.306 922.946 535.364 918.31C556.426 913.674 556.426 913.674 556.426 913.674L561.751 827.724C561.751 827.724 541.63 828.316 498.772 829.413C468.067 830.201 453.306 829.277 453.306 829.277L430.565 829.786Z" fill="#777776"/>
<path d="M430.565 829.786C430.565 829.786 436.132 891.034 438.528 905.067C440.922 919.098 440.922 919.098 440.922 919.098C440.922 919.098 514.306 922.946 535.364 918.31C556.426 913.674 556.426 913.674 556.426 913.674L561.751 827.724C561.751 827.724 541.63 828.316 498.772 829.413C468.067 830.201 453.306 829.277 453.306 829.277L430.565 829.786V829.786Z" stroke="#1A1919" stroke-width="4.85041" stroke-linecap="round" stroke-linejoin="round"/>
<path d="M439.18 891.698C439.18 891.698 466.197 897.128 507.348 893.657C548.498 890.189 557.257 889.269 557.257 889.269" fill="#777776"/>
<path d="M439.18 891.698C439.18 891.698 466.197 897.128 507.348 893.657C548.498 890.189 557.257 889.269 557.257 889.269" stroke="#1A1919" stroke-width="4.85041" stroke-linecap="round" stroke-linejoin="round"/>
<path d="M326.581 825.639C326.581 825.639 338.43 903.941 340.996 907.503C343.56 911.071 416.043 916.639 438.88 910.306C433.551 861.289 430.565 829.786 430.565 829.786L326.581 825.639Z" fill="#777776"/>
<path d="M326.581 825.639C326.581 825.639 338.43 903.941 340.996 907.503C343.56 911.071 416.043 916.639 438.88 910.306C433.551 861.289 430.565 829.786 430.565 829.786L326.581 825.639Z" stroke="#1A1919" stroke-width="4.85041" stroke-linecap="round" stroke-linejoin="round"/>
<path d="M338.788 881.841C338.788 881.841 353.608 884.598 396.413 886.989C433.188 889.045 436.689 883.489 436.689 883.489" fill="#777776"/>
<path d="M338.788 881.841C338.788 881.841 353.608 884.598 396.413 886.989C433.188 889.045 436.689 883.489 436.689 883.489" stroke="#1A1919" stroke-width="4.85041" stroke-linecap="round" stroke-linejoin="round"/>
<path d="M309.59 160.455C309.59 160.455 284.428 175.439 285.564 145.804C286.698 116.166 295.818 119.916 295.818 119.916C295.818 119.916 265.738 114.686 278.031 84.4977C290.323 54.3036 305.671 78.3089 305.671 78.3089C305.671 78.3089 289.308 35.9518 317.576 31.5249C345.848 27.098 340.652 64.4752 340.652 64.4752L309.59 160.455Z" fill="#E3E4E2"/>
<path d="M309.59 160.455C309.59 160.455 284.428 175.439 285.564 145.804C286.698 116.166 295.818 119.916 295.818 119.916C295.818 119.916 265.738 114.686 278.031 84.4977C290.323 54.3036 305.671 78.3089 305.671 78.3089C305.671 78.3089 289.308 35.9518 317.576 31.5249C345.848 27.098 340.652 64.4752 340.652 64.4752L309.59 160.455Z" stroke="#1A1919" stroke-width="4.85041" stroke-linecap="round" stroke-linejoin="round"/>
<path d="M574.749 186.817C573.112 287.744 507.441 361.608 428.343 359.34C349.245 357.075 300.572 296.939 301.147 195.994C301.852 71.217 358.341 -2.21964 437.434 0.0511664C516.534 2.31611 576.381 85.8891 574.749 186.817Z" fill="#F9D8B5"/>
<path d="M574.749 186.817C573.112 287.744 507.441 361.608 428.343 359.34C349.245 357.075 300.572 296.939 301.147 195.994C301.852 71.217 358.341 -2.21964 437.434 0.0511664C516.534 2.31611 576.381 85.8891 574.749 186.817Z" stroke="#1A1919" stroke-width="4.85041" stroke-linecap="round" stroke-linejoin="round"/>
<path d="M375.267 139.5C375.172 145.345 371.534 149.984 367.14 149.863C362.746 149.736 359.262 144.892 359.353 139.047C359.448 133.197 363.086 128.558 367.483 128.684C371.877 128.808 375.362 133.652 375.267 139.5Z" fill="#1A1919"/>
<path d="M375.267 139.5C375.172 145.345 371.534 149.984 367.14 149.863C362.746 149.736 359.262 144.892 359.353 139.047C359.448 133.197 363.086 128.558 367.483 128.684C371.877 128.808 375.362 133.652 375.267 139.5Z" stroke="#1A1919" stroke-width="0.969757"/>
<path d="M465.01 145.566C464.915 151.41 461.275 156.049 456.883 155.923C452.486 155.799 449.005 150.954 449.098 145.107C449.193 139.259 452.831 134.62 457.225 134.747C461.617 134.873 465.103 139.715 465.01 145.566Z" fill="#1A1919"/>
<path d="M465.01 145.566C464.915 151.41 461.275 156.049 456.883 155.923C452.486 155.799 449.005 150.954 449.098 145.107C449.193 139.259 452.831 134.62 457.225 134.747C461.617 134.873 465.103 139.715 465.01 145.566Z" stroke="#1A1919" stroke-width="0.969757"/>
<path d="M379 116.273C356.463 96.1922 341 124 341 124C341 124 341.271 83.3879 362.533 84.007C378.853 84.4832 379 116.273 379 116.273Z" fill="#FFFFFE"/>
<path d="M379 114.66C356.463 95.5826 341 122 341 122C341 122 341.271 83.4185 362.533 84.0067C378.853 84.4591 379 114.66 379 114.66Z" stroke="#1A1919" stroke-width="4.85041" stroke-linecap="round" stroke-linejoin="round"/>
<path d="M475.845 127C459.285 96.7125 430.002 115.605 430.002 115.605C430.002 115.605 429.271 83.3659 454.256 84.0095C479.238 84.6505 475.845 127 475.845 127Z" fill="#FFFFFE"/>
<path d="M475.845 128C459.285 95.5994 430.002 115.81 430.002 115.81C430.002 115.81 429.271 81.3216 454.256 82.0102C479.238 82.6959 475.845 128 475.845 128Z" stroke="#1A1919" stroke-width="4.85041" stroke-linecap="round" stroke-linejoin="round"/>
<path d="M450.753 190.244C450.508 205.419 441.064 217.455 429.661 217.132C418.258 216.802 409.213 204.236 409.458 189.061C409.704 173.883 419.146 161.85 430.549 162.176C441.954 162.503 450.997 175.072 450.753 190.244Z" fill="#FFFFFE"/>
<path d="M365.38 301.871C367.59 294.715 377.72 289.038 391.148 290.137C404.577 291.235 416.306 298.7 414.4 305.881C412.495 313.062 397.667 317.821 384.194 316.885C370.722 315.95 363.623 309.669 365.222 302.467" fill="#E8B37C"/>
<path d="M365.38 301.871C367.59 294.715 377.72 289.038 391.148 290.137C404.577 291.235 416.306 298.7 414.4 305.881C412.495 313.062 397.667 317.821 384.194 316.885C370.722 315.95 363.623 309.669 365.222 302.467" stroke="#E8A763" stroke-width="1.41111" stroke-linecap="round" stroke-linejoin="round"/>
<path d="M368.361 301.985C370.285 295.755 379.104 290.812 390.796 291.769C402.487 292.725 412.698 299.225 411.04 305.477C409.381 311.729 396.471 315.872 384.741 315.057C373.012 314.243 366.831 308.775 368.223 302.504" fill="#D35F5F"/>
<path d="M368.361 301.985C370.285 295.755 379.104 290.812 390.796 291.769C402.487 292.725 412.698 299.225 411.04 305.477C409.381 311.729 396.471 315.872 384.741 315.057C373.012 314.243 366.831 308.775 368.223 302.504" stroke="#C78960" stroke-width="1.41111" stroke-linecap="round" stroke-linejoin="round"/>
<path d="M375.906 302.901C375.906 301.47 374.244 300.309 372.195 300.309C370.145 300.309 368.483 301.47 368.483 302.901C368.483 304.333 370.145 305.494 372.195 305.494C374.244 305.494 375.906 304.333 375.906 302.901Z" fill="white"/>
<path d="M375.452 305.454C375.452 304.022 373.791 302.861 371.741 302.861C369.691 302.861 368.03 304.022 368.03 305.454C368.03 306.885 369.691 308.046 371.741 308.046C373.791 308.046 375.452 306.885 375.452 305.454Z" fill="white"/>
<path d="M410.891 301.272C410.891 299.84 409.23 298.679 407.18 298.679C405.13 298.679 403.469 299.84 403.469 301.272C403.469 302.704 405.13 303.865 407.18 303.865C409.23 303.865 410.891 302.704 410.891 301.272Z" fill="white"/>
<path d="M376.964 308.088C376.964 306.656 375.302 305.495 373.253 305.495C371.203 305.495 369.541 306.656 369.541 308.088C369.541 309.52 371.203 310.68 373.253 310.68C375.302 310.68 376.964 309.52 376.964 308.088Z" fill="white"/>
<path d="M380.289 310.393C380.289 308.961 378.628 307.8 376.578 307.8C374.528 307.8 372.867 308.961 372.867 310.393C372.867 311.825 374.528 312.985 376.578 312.985C378.628 312.985 380.289 311.825 380.289 310.393Z" fill="white"/>
<path d="M383.766 311.463C383.766 312.899 382.111 314.056 380.054 314.056C377.998 314.056 376.343 312.899 376.343 311.463C377.193 308.609 383.947 309.407 383.766 311.463Z" fill="white"/>
<path d="M408.867 308.023C408.867 306.591 407.205 305.43 405.155 305.43C403.106 305.43 401.444 306.591 401.444 308.023C401.444 309.455 403.106 310.615 405.155 310.615C407.205 310.615 408.867 309.455 408.867 308.023Z" fill="white"/>
<path d="M405.177 310.1C405.177 308.669 403.515 307.508 401.465 307.508C399.416 307.508 397.754 308.669 397.754 310.1C397.754 311.532 399.416 312.693 401.465 312.693C403.515 312.693 405.177 311.532 405.177 310.1Z" fill="white"/>
<path d="M399.117 311.751C399.117 310.319 397.456 309.158 395.406 309.158C393.356 309.158 391.695 310.319 391.695 311.751C391.695 313.182 393.356 314.343 395.406 314.343C397.456 314.343 399.117 313.182 399.117 311.751Z" fill="white"/>
<path d="M390.652 309.287C389.347 309.287 388.204 309.755 387.543 310.463C386.871 309.991 385.94 309.699 384.908 309.699C382.852 309.699 381.197 310.855 381.197 312.292C381.197 313.728 382.852 314.884 384.908 314.884C386.214 314.884 387.357 314.417 388.018 313.709C388.689 314.181 389.62 314.473 390.652 314.473C392.708 314.473 394.364 313.316 394.364 311.88C394.364 310.444 392.708 309.287 390.652 309.287Z" fill="white"/>
<path d="M410.891 305.129C410.891 303.698 409.23 302.537 407.18 302.537C405.13 302.537 403.469 303.698 403.469 305.129C403.469 306.561 405.13 307.722 407.18 307.722C409.23 307.722 410.891 306.561 410.891 305.129Z" fill="white"/>
<path d="M450.753 190.244C450.508 205.419 441.064 217.455 429.661 217.132C418.258 216.802 409.213 204.236 409.458 189.061C409.704 173.883 419.146 161.85 430.549 162.176C441.954 162.503 450.997 175.072 450.753 190.244Z" stroke="#1A1919" stroke-width="4.85041" stroke-linecap="round" stroke-linejoin="round"/>
<path d="M373.627 174.507C373.627 174.507 388.443 150.496 409.622 179.028M371.525 182.737C371.28 197.909 361.837 209.948 350.434 209.622C339.031 209.295 329.985 196.73 330.232 181.554C330.478 166.379 339.922 154.343 351.325 154.667C362.728 154.996 371.773 167.562 371.525 182.737Z" stroke="#1A1919" stroke-width="4.85041" stroke-linecap="round" stroke-linejoin="round"/>
<path d="M371.525 182.737C371.28 197.909 361.837 209.948 350.434 209.622C339.031 209.295 329.985 196.729 330.232 181.554C330.478 166.379 339.922 154.343 351.325 154.667C362.728 154.996 371.773 167.562 371.525 182.737Z" fill="#FFFFFE"/>
<path d="M345.165 231.289C345.165 231.289 311.239 234.457 321.59 269.884C329.045 295.404 350.331 276.817 350.331 276.817C350.331 276.817 350.494 308.388 373.506 303.664C384.69 301.363 388.863 286.647 388.863 286.647C388.863 286.647 395.571 312.506 412.776 308.279C431.867 303.59 434.844 281.859 434.844 281.859C434.844 281.859 455.749 309.947 467.464 292.395C478.886 275.264 475.774 260.121 466.173 250.467C442.94 227.109 414.016 231.515 414.016 231.515" fill="#E3E4E2"/>
<path d="M345.165 231.289C345.165 231.289 311.239 234.457 321.59 269.884C329.045 295.404 350.331 276.817 350.331 276.817C350.331 276.817 350.494 308.388 373.506 303.664C384.69 301.363 388.863 286.647 388.863 286.647C388.863 286.647 395.571 312.506 412.776 308.279C431.867 303.59 434.844 281.859 434.844 281.859C434.844 281.859 455.749 309.947 467.464 292.395C478.886 275.264 475.774 260.121 466.173 250.467C442.94 227.109 414.016 231.515 414.016 231.515" stroke="#1A1919" stroke-width="4.85041" stroke-linecap="round" stroke-linejoin="round"/>
<path d="M548.226 204.819C548.226 204.819 561.271 168.539 583.361 181.39C605.448 194.241 593.873 238.349 582.103 259.024C567.93 283.927 544.806 294.61 538.814 259.53" fill="#F9D8B5"/>
<path d="M548.226 204.819C548.226 204.819 561.271 168.539 583.361 181.39C605.448 194.241 593.873 238.349 582.103 259.024C567.93 283.927 544.806 294.61 538.814 259.53" stroke="#1A1919" stroke-width="4.85041" stroke-linecap="round" stroke-linejoin="round"/>
<path d="M374.825 181.522C374.825 181.522 341.841 193.667 347.844 227.874C353.847 262.083 432.176 244.255 407.034 217.355" fill="#F9D8B5"/>
<path d="M374.825 181.522C374.825 181.522 341.841 193.667 347.844 227.874C353.847 262.083 432.176 244.255 407.034 217.355" stroke="#1A1919" stroke-width="4.85041" stroke-linecap="round" stroke-linejoin="round"/>
<path d="M547.611 202.183C547.611 202.183 532.692 192.156 535.596 174.786C538.5 157.414 547.848 147.21 547.848 147.21C547.848 147.21 528.28 140.542 529.347 115.266C530.411 89.9867 540.927 88.5424 540.927 88.5424C540.927 88.5424 521.276 87.107 524.852 68.8817C528.424 50.6593 544.756 54.6185 544.756 54.6185C544.756 54.6185 546.391 34.59 569.319 36.1255C592.244 37.6521 600.345 64.0665 590.754 89.0954C606.741 73.8498 626.347 77.9002 629.359 94.5695C632.367 111.236 620.317 126.596 620.317 126.596C620.317 126.596 645.68 139.545 639.399 162.926C631.258 193.238 613.611 176.148 613.611 176.148C613.611 176.148 631.371 213.311 608.189 227.483C590.418 238.348 593.798 225.327 593.798 225.327C593.798 225.327 600.374 183.625 578.788 180.387C560.497 177.648 547.611 202.183 547.611 202.183Z" fill="#E3E4E2"/>
<path d="M547.611 202.183C547.611 202.183 532.692 192.156 535.596 174.786C538.5 157.414 547.848 147.21 547.848 147.21C547.848 147.21 528.28 140.542 529.347 115.266C530.411 89.9867 540.927 88.5424 540.927 88.5424C540.927 88.5424 521.276 87.107 524.852 68.8817C528.424 50.6593 544.756 54.6185 544.756 54.6185C544.756 54.6185 546.391 34.59 569.319 36.1255C592.244 37.6521 600.345 64.0665 590.754 89.0954C606.741 73.8498 626.347 77.9002 629.359 94.5695C632.367 111.236 620.317 126.596 620.317 126.596C620.317 126.596 645.68 139.545 639.399 162.926C631.258 193.238 613.611 176.148 613.611 176.148C613.611 176.148 631.371 213.311 608.189 227.483C590.418 238.348 593.798 225.327 593.798 225.327C593.798 225.327 600.374 183.625 578.788 180.387C560.497 177.648 547.611 202.183 547.611 202.183Z" stroke="#1A1919" stroke-width="4.85041" stroke-linecap="round" stroke-linejoin="round"/>
<path d="M357.406 325.889C357.406 325.889 371.547 382.321 422.501 355.68L357.406 325.889Z" fill="#F9D8B5"/>
<path d="M577.72 219.338C577.72 219.338 566.432 214.355 559.12 233.93M357.406 325.889C357.406 325.889 371.547 382.321 422.501 355.68L357.406 325.889Z" stroke="#F9D8B5" stroke-width="4.85041" stroke-linecap="round" stroke-linejoin="round"/>
</svg>